<?xml version="1.0" standalone="no"?>
<!DOCTYPE svg PUBLIC "-//W3C//DTD SVG 20010904//EN"
 "http://www.w3.org/TR/2001/REC-SVG-20010904/DTD/svg10.dtd">
<svg version="1.0" xmlns="http://www.w3.org/2000/svg"
 width="450.000000pt" height="450.000000pt" viewBox="0 0 450.000000 450.000000"
 preserveAspectRatio="xMidYMid meet">
<metadata>
Created by potrace 1.11, written by Peter Selinger 2001-2013
</metadata>
<g transform="translate(0.000000,450.000000) scale(0.100000,-0.100000)"
fill="#000000" stroke="none">
<path d="M0 2250 l0 -2250 2250 0 2250 0 0 2250 0 2250 -2250 0 -2250 0 0
-2250z m2201 1673 c35 -14 49 -14 86 -5 89 24 19 49 918 -318 640 -261 637
-260 696 -315 35 -33 56 -45 78 -45 52 0 81 -36 90 -110 12 -99 2 -2209 -10
-2246 -14 -45 -36 -60 -96 -68 -33 -4 -74 -20 -115 -44 -114 -68 -226 -114
-293 -121 -51 -6 -69 -12 -89 -34 -47 -51 -110 -41 -142 22 -7 14 -13 194 -18
534 -6 458 -9 513 -24 525 -9 6 -25 9 -36 6 -12 -3 -190 -79 -396 -167 -315
-135 -385 -161 -435 -165 -33 -2 -79 -11 -102 -19 -24 -9 -56 -13 -75 -10
-163 28 -203 43 -586 207 -218 93 -407 170 -418 170 -12 0 -25 -8 -30 -17 -4
-10 -10 -256 -13 -546 l-6 -529 -28 -24 c-39 -33 -74 -30 -124 10 -30 24 -56
35 -92 39 -52 6 -229 84 -311 137 -31 20 -60 30 -84 30 -47 0 -72 13 -90 49
-21 40 -29 2283 -8 2319 17 29 70 62 101 62 15 0 41 17 71 48 39 40 68 56 191
106 620 254 1291 525 1306 529 32 8 42 7 84 -10z"/>
<path d="M2180 3765 c-36 -18 -337 -144 -670 -279 -774 -315 -730 -297 -741
-317 -11 -22 17 -43 111 -83 36 -15 79 -34 95 -41 17 -8 269 -118 560 -246
292 -127 557 -245 590 -262 51 -26 70 -30 123 -28 52 2 78 10 157 51 52 26 95
46 95 43 0 -2 12 2 28 10 15 8 43 22 62 30 19 9 65 30 103 46 37 17 71 31 76
31 5 0 22 6 38 14 15 8 45 21 66 30 20 9 52 22 70 30 17 8 183 78 367 156 443
189 456 195 426 225 -6 6 -312 134 -681 284 -368 150 -698 288 -733 307 -34
19 -66 34 -70 33 -4 0 -36 -15 -72 -34z"/>
<path d="M3830 2973 c-59 -23 -917 -416 -925 -424 -5 -5 -14 -9 -21 -9 -7 0
-61 -23 -120 -52 -60 -28 -113 -52 -119 -54 -5 -1 -45 -18 -87 -38 -43 -20
-98 -39 -123 -43 -77 -10 -75 3 -75 -420 0 -359 1 -373 20 -383 16 -8 90 21
422 169 222 98 418 182 437 186 20 4 52 25 79 51 53 53 91 58 137 18 l30 -26
5 -560 c4 -498 7 -562 21 -571 12 -7 44 3 130 43 63 28 141 58 174 64 46 10
63 18 72 37 10 19 12 241 12 989 -1 531 -4 979 -8 995 -6 30 -29 41 -61 28z"/>
<path d="M631 2946 c-10 -11 -13 -252 -14 -994 -2 -1098 -8 -1015 70 -1020 21
-2 88 -25 148 -51 61 -27 118 -52 129 -55 46 -15 46 -17 46 549 0 364 4 542
11 564 12 34 53 61 92 61 14 0 41 -17 68 -43 37 -37 53 -45 95 -50 36 -4 166
-57 431 -175 209 -93 392 -172 406 -176 20 -5 29 -2 37 14 7 14 10 137 8 386
-3 411 2 386 -82 397 -24 4 -256 101 -527 220 -774 343 -876 387 -892 387 -8
0 -20 -6 -26 -14z"/>
</g>
</svg>
